<svg data-v-423bf9ae="" xmlns="http://www.w3.org/2000/svg" viewBox="0 0 500 90" class="iconLeft"><!----><!----><!----><g data-v-423bf9ae="" id="a1501610-04ab-4bb6-b47a-a5252eac75b5" fill="#FFFFFF" transform="matrix(4.792332649230957,0,0,4.792332649230957,107.26837158203125,-1.9648562669754028)"><path d="M4.62 4.96L4.62 4.96Q6.68 4.96 7.66 6.19L7.66 6.19L7.66 6.19Q8.64 7.42 8.64 9.41L8.64 9.41L8.64 9.41Q8.64 11.38 7.65 12.61L7.65 12.61L7.65 12.61Q6.66 13.85 4.62 13.85L4.62 13.85L4.62 13.85Q2.58 13.85 1.57 12.61L1.57 12.61L1.57 12.61Q0.57 11.38 0.57 9.41L0.57 9.41L0.57 9.41Q0.57 7.43 1.57 6.20L1.57 6.20L1.57 6.20Q2.56 4.96 4.62 4.96L4.62 4.96ZM7.38 9.41L7.38 9.41Q7.38 7.90 6.74 6.76L6.74 6.76L6.74 6.76Q6.10 5.63 4.54 5.63L4.54 5.63L4.54 5.63Q3.02 5.63 2.43 6.76L2.43 6.76L2.43 6.76Q1.83 7.88 1.83 9.41L1.83 9.41L1.83 9.41Q1.83 10.91 2.47 12.04L2.47 12.04L2.47 12.04Q3.11 13.17 4.66 13.17L4.66 13.17L4.66 13.17Q6.20 13.17 6.79 12.05L6.79 12.05L6.79 12.05Q7.38 10.92 7.38 9.41L7.38 9.41ZM9.45 16.06L9.45 15.67L10.70 15.30L10.70 7.70L9.45 7.56L9.45 7.24L9.45 7.24Q10.28 7.03 11.30 6.87L11.30 6.87L11.30 6.87Q12.32 6.72 13.08 6.72L13.08 6.72L13.08 6.72Q15.05 6.72 15.88 7.69L15.88 7.69L15.88 7.69Q16.70 8.65 16.70 10.32L16.70 10.32L16.70 10.32Q16.70 11.86 15.92 12.79L15.92 12.79L15.92 12.79Q15.13 13.72 13.69 13.72L13.69 13.72L13.69 13.72Q13.06 13.72 12.54 13.57L12.54 13.57L12.71 13.05L12.71 13.05Q12.96 13.08 13.19 13.08L13.19 13.08L13.19 13.08Q14.50 13.08 14.96 12.31L14.96 12.31L14.96 12.31Q15.41 11.54 15.41 10.26L15.41 10.26L15.41 10.26Q15.41 9.45 15.27 8.84L15.27 8.84L15.27 8.84Q15.12 8.23 14.63 7.82L14.63 7.82L14.63 7.82Q14.14 7.41 13.19 7.41L13.19 7.41L13.19 7.41Q12.60 7.41 11.86 7.64L11.86 7.64L11.86 15.29L13.27 15.65L13.27 16.06L9.45 16.06ZM20.97 13.87L20.97 13.87Q19.40 13.87 18.61 12.97L18.61 12.97L18.61 12.97Q17.82 12.07 17.82 10.32L17.82 10.32L17.82 10.32Q17.82 8.57 18.59 7.64L18.59 7.64L18.59 7.64Q19.36 6.72 20.82 6.72L20.82 6.72L20.82 6.72Q22.16 6.72 22.81 7.36L22.81 7.36L22.81 7.36Q23.45 7.99 23.45 9.35L23.45 9.35L23.45 9.35Q23.45 9.52 23.42 10.05L23.42 10.05L19.11 10.05L19.11 10.50L19.11 10.50Q19.11 11.73 19.66 12.43L19.66 12.43L19.66 12.43Q20.20 13.13 21.17 13.13L21.17 13.13L21.17 13.13Q21.63 13.13 22.19 13.05L22.19 13.05L22.19 13.05Q22.75 12.96 23.27 12.82L23.27 12.82L23.35 13.26L23.35 13.26Q22.75 13.59 22.22 13.73L22.22 13.73L22.22 13.73Q21.69 13.87 20.97 13.87L20.97 13.87ZM19.14 9.56L22.19 9.42L22.19 9.10L22.19 9.10Q22.19 8.23 21.88 7.82L21.88 7.82L21.88 7.82Q21.57 7.41 20.90 7.41L20.90 7.41L20.90 7.41Q20.01 7.41 19.60 7.90L19.60 7.90L19.60 7.90Q19.19 8.40 19.14 9.56L19.14 9.56ZM26.73 7.28L26.73 7.28Q27.22 7.07 27.91 6.90L27.91 6.90L27.91 6.90Q28.60 6.72 29.23 6.72L29.23 6.72L29.23 6.72Q30.06 6.72 30.58 7.08L30.58 7.08L30.58 7.08Q31.09 7.45 31.09 8.25L31.09 8.25L31.09 12.98L32.35 13.33L32.35 13.72L28.78 13.72L28.78 13.33L29.93 12.98L29.93 8.48L29.93 8.48Q29.93 8.11 29.81 7.91L29.81 7.91L29.81 7.91Q29.69 7.71 29.40 7.64L29.40 7.64L29.40 7.64Q29.11 7.56 28.53 7.56L28.53 7.56L28.53 7.56Q28.08 7.56 27.59 7.62L27.59 7.62L27.59 7.62Q27.10 7.69 26.73 7.78L26.73 7.78L26.73 12.98L27.87 13.33L27.87 13.72L24.32 13.72L24.32 13.33L25.56 12.98L25.56 7.70L24.32 7.56L24.32 7.24L26.35 6.72L26.73 6.72L26.73 7.28ZM32.87 7.13L32.76 5.17L39.68 5.17L39.59 7.13L39.05 7.13L38.78 5.89L36.81 5.89L36.81 12.98L38.29 13.26L38.29 13.72L34.15 13.72L34.15 13.26L35.64 12.98L35.64 5.89L33.66 5.89L33.38 7.13L32.87 7.13ZM43.64 6.72L43.64 6.72Q45.32 6.72 46.10 7.71L46.10 7.71L46.10 7.71Q46.89 8.69 46.89 10.32L46.89 10.32L46.89 10.32Q46.89 11.90 46.09 12.88L46.09 12.88L46.09 12.88Q45.29 13.86 43.64 13.86L43.64 13.86L43.64 13.86Q41.99 13.86 41.18 12.87L41.18 12.87L41.18 12.87Q40.38 11.89 40.38 10.32L40.38 10.32L40.38 10.32Q40.38 8.71 41.17 7.71L41.17 7.71L41.17 7.71Q41.97 6.72 43.64 6.72L43.64 6.72ZM45.60 10.28L45.60 10.28Q45.60 8.90 45.16 8.14L45.16 8.14L45.16 8.14Q44.72 7.38 43.60 7.38L43.60 7.38L43.60 7.38Q42.53 7.38 42.10 8.15L42.10 8.15L42.10 8.15Q41.66 8.92 41.66 10.28L41.66 10.28L41.66 10.28Q41.66 11.66 42.11 12.43L42.11 12.43L42.11 12.43Q42.56 13.19 43.68 13.19L43.68 13.19L43.68 13.19Q44.77 13.19 45.19 12.43L45.19 12.43L45.19 12.43Q45.60 11.68 45.60 10.28L45.60 10.28ZM51.30 6.72L51.30 6.72Q52.98 6.72 53.76 7.71L53.76 7.71L53.76 7.71Q54.54 8.69 54.54 10.32L54.54 10.32L54.54 10.32Q54.54 11.90 53.75 12.88L53.75 12.88L53.75 12.88Q52.95 13.86 51.30 13.86L51.30 13.86L51.30 13.86Q49.64 13.86 48.84 12.87L48.84 12.87L48.84 12.87Q48.03 11.89 48.03 10.32L48.03 10.32L48.03 10.32Q48.03 8.71 48.83 7.71L48.83 7.71L48.83 7.71Q49.63 6.72 51.30 6.72L51.30 6.72ZM53.26 10.28L53.26 10.28Q53.26 8.90 52.82 8.14L52.82 8.14L52.82 8.14Q52.37 7.38 51.25 7.38L51.25 7.38L51.25 7.38Q50.19 7.38 49.76 8.15L49.76 8.15L49.76 8.15Q49.32 8.92 49.32 10.28L49.32 10.28L49.32 10.28Q49.32 11.66 49.77 12.43L49.77 12.43L49.77 12.43Q50.22 13.19 51.34 13.19L51.34 13.19L51.34 13.19Q52.43 13.19 52.84 12.43L52.84 12.43L52.84 12.43Q53.26 11.68 53.26 10.28L53.26 10.28ZM59.04 13.72L55.36 13.72L55.36 13.26L56.62 12.98L56.62 4.54L55.36 4.40L55.36 4.07L57.40 3.54L57.78 3.54L57.78 12.98L59.04 13.26L59.04 13.72ZM61.61 7.08L61.61 7.08Q61.95 6.93 62.38 6.83L62.38 6.83L62.38 6.83Q62.80 6.72 63.15 6.72L63.15 6.72L63.15 6.72Q64.75 6.72 65.61 7.59L65.61 7.59L65.61 7.59Q66.47 8.46 66.47 10.23L66.47 10.23L66.47 10.23Q66.47 11.80 65.72 12.83L65.72 12.83L65.72 12.83Q64.96 13.86 63.11 13.86L63.11 13.86L63.11 13.86Q62.52 13.86 61.71 13.75L61.71 13.75L61.71 13.75Q60.89 13.64 60.44 13.47L60.44 13.47L60.44 4.54L59.21 4.40L59.21 4.07L61.26 3.54L61.61 3.54L61.61 7.08ZM61.61 12.99L61.61 12.99Q61.84 13.09 62.21 13.17L62.21 13.17L62.21 13.17Q62.58 13.24 63.00 13.24L63.00 13.24L63.00 13.24Q64.23 13.24 64.71 12.52L64.71 12.52L64.71 12.52Q65.18 11.80 65.18 10.26L65.18 10.26L65.18 10.26Q65.18 8.79 64.72 8.09L64.72 8.09L64.72 8.09Q64.26 7.39 63.06 7.39L63.06 7.39L63.06 7.39Q62.64 7.39 62.31 7.48L62.31 7.48L62.31 7.48Q61.98 7.56 61.61 7.71L61.61 7.71L61.61 12.99ZM70.88 6.72L70.88 6.72Q72.56 6.72 73.35 7.71L73.35 7.71L73.35 7.71Q74.13 8.69 74.13 10.32L74.13 10.32L74.13 10.32Q74.13 11.90 73.33 12.88L73.33 12.88L73.33 12.88Q72.53 13.86 70.88 13.86L70.88 13.86L70.88 13.86Q69.23 13.86 68.43 12.87L68.43 12.87L68.43 12.87Q67.62 11.89 67.62 10.32L67.62 10.32L67.62 10.32Q67.62 8.71 68.42 7.71L68.42 7.71L68.42 7.71Q69.22 6.72 70.88 6.72L70.88 6.72ZM72.84 10.28L72.84 10.28Q72.84 8.90 72.40 8.14L72.40 8.14L72.40 8.14Q71.96 7.38 70.84 7.38L70.84 7.38L70.84 7.38Q69.78 7.38 69.34 8.15L69.34 8.15L69.34 8.15Q68.91 8.92 68.91 10.28L68.91 10.28L68.91 10.28Q68.91 11.66 69.36 12.43L69.36 12.43L69.36 12.43Q69.80 13.19 70.92 13.19L70.92 13.19L70.92 13.19Q72.02 13.19 72.43 12.43L72.43 12.43L72.43 12.43Q72.84 11.68 72.84 10.28L72.84 10.28ZM81.86 13.29L81.86 13.72L78.75 13.72L78.75 13.27L79.48 13.03L78.08 11.00L76.73 13.02L77.62 13.27L77.62 13.72L74.82 13.72L74.82 13.27L75.82 13.01L77.60 10.36L75.66 7.48L74.87 7.28L74.87 6.85L77.59 6.85L77.59 7.32L76.93 7.43L78.34 9.48L79.69 7.46L78.83 7.31L78.83 6.85L81.41 6.85L81.41 7.31L80.63 7.45L78.79 10.12L80.78 13.01L81.86 13.29Z"></path></g><!----><g data-v-423bf9ae="" id="f7729c56-5688-4466-a83d-f2ab04e11cdc" transform="matrix(2.8125,0,0,2.8125,0,0)" stroke="none" fill="#50C1AE"><path d="M31 1v30H1V1h30m1-1H0v32h32V0z"></path><path d="M24.12 1v24.608L7.88 9.368V1h16.24m1-1H6.88v9.783l18.24 18.239V0z"></path></g><!----></svg>