<?xml version="1.0" standalone="no"?>
<!DOCTYPE svg PUBLIC "-//W3C//DTD SVG 20010904//EN"
 "http://www.w3.org/TR/2001/REC-SVG-20010904/DTD/svg10.dtd">
<svg version="1.0" xmlns="http://www.w3.org/2000/svg"
 width="700.000000pt" height="700.000000pt" viewBox="0 0 700.000000 700.000000"
 preserveAspectRatio="xMidYMid meet">
<metadata>
Created by potrace 1.14, written by Peter Selinger 2001-2017
</metadata>
<g transform="translate(0.000000,700.000000) scale(0.100000,-0.100000)"
fill="#000000" stroke="none">
<path d="M0 3500 l0 -3500 3500 0 3500 0 0 3500 0 3500 -3500 0 -3500 0 0
-3500z m1505 2317 l0 -957 1990 -1990 c1094 -1095 1992 -1990 1995 -1990 3 0
5 1326 5 2948 l0 2947 643 3 642 2 0 -3280 0 -3280 -3280 0 -3280 0 0 3280 0
3280 642 -2 643 -3 0 -958z m3770 -1730 l1 -2688 -1776 1776 -1776 1776 0 915
0 914 1776 -2 1775 -3 0 -2688z"/>
</g>
</svg>
